<?xml version="1.0" standalone="no"?>
<!DOCTYPE svg PUBLIC "-//W3C//DTD SVG 20010904//EN"
 "http://www.w3.org/TR/2001/REC-SVG-20010904/DTD/svg10.dtd">
<svg version="1.0" xmlns="http://www.w3.org/2000/svg"
 width="512.000000pt" height="512.000000pt" viewBox="0 0 512.000000 512.000000"
 preserveAspectRatio="xMidYMid meet">

<g transform="translate(0.000000,512.000000) scale(0.100000,-0.100000)"
fill="#000000" stroke="none">
<path d="M3600 4949 c-14 -6 -36 -20 -48 -32 -55 -51 -52 100 -52 -2257 l0
-2180 -185 0 -185 0 -2 1629 c-3 1628 -3 1630 -24 1657 -11 15 -33 37 -48 48
-27 21 -38 21 -496 21 -458 0 -469 0 -496 -21 -15 -11 -37 -33 -48 -48 -21
-27 -21 -31 -21 -1206 0 -1175 0 -1179 21 -1206 38 -52 71 -69 132 -69 70 0
115 28 143 89 18 39 19 89 19 1094 l0 1052 250 0 250 0 0 -1520 0 -1520 -250
0 -250 0 0 253 c0 224 -2 257 -19 293 -28 61 -73 89 -143 89 -61 0 -94 -17
-132 -69 -20 -26 -21 -43 -24 -297 l-3 -269 -184 0 -185 0 0 584 0 583 -22 33
c-34 50 -71 72 -125 77 -65 5 -120 -26 -150 -87 l-23 -44 0 -573 0 -573 -250
0 -250 0 0 960 0 960 250 0 250 0 0 -93 c0 -114 23 -169 85 -205 74 -42 160
-19 213 58 21 32 22 42 22 240 0 198 -1 208 -22 240 -13 18 -36 43 -51 54 -28
21 -37 21 -497 21 -458 0 -469 0 -496 -21 -15 -11 -37 -33 -48 -48 -21 -27
-21 -34 -24 -1096 l-2 -1068 -109 -4 c-92 -2 -114 -6 -137 -24 -53 -39 -69
-71 -69 -134 0 -63 16 -95 69 -134 l27 -21 2299 0 2299 0 27 21 c53 39 69 71
69 134 0 63 -16 95 -69 134 -23 18 -45 22 -137 24 l-109 4 -2 1068 c-3 1062
-3 1069 -24 1096 -39 53 -71 69 -134 69 -63 0 -95 -16 -134 -69 -21 -27 -21
-34 -24 -1097 l-2 -1069 -250 0 -250 0 0 2080 0 2080 250 0 250 0 2 -749 c3
-739 3 -750 24 -777 39 -53 71 -69 134 -69 63 0 95 16 134 69 21 27 21 34 21
886 0 852 0 859 -21 886 -11 15 -33 37 -48 48 -27 20 -40 21 -484 23 -290 1
-466 -2 -482 -8z"/>
</g>
</svg>
